<?xml version="1.0" encoding="utf-8"?>
<!DOCTYPE svg PUBLIC "-//W3C//DTD SVG 1.1//EN" "http://www.w3.org/Graphics/SVG/1.1/DTD/svg11.dtd">
<svg version="1.1" id="Layer_1" xmlns="http://www.w3.org/2000/svg" xmlns:xlink="http://www.w3.org/1999/xlink" x="0px" y="0px"
	 width="284.5px" height="67px" viewBox="0 0 284.5 67" enable-background="new 0 0 284.5 67" xml:space="preserve">
<g>
	<path d="M91.63,40.057c0,4.332,1.673,5.721,6.738,5.721c1.855,0,4.881-0.229,7.248-0.647l0.432,3.442
		c-2.238,0.51-5.495,0.839-7.82,0.839c-7.576,0-10.6-3.26-10.6-9.112v-13.69c0-5.863,3.024-9.118,10.6-9.118
		c2.325,0,5.582,0.329,7.82,0.841l-0.432,3.436c-2.366-0.419-5.392-0.646-7.248-0.646c-5.065,0-6.738,1.391-6.738,5.725V40.057"/>
	<path d="M118.349,29.218c-3.524,0-5.294,1.674-5.294,4.976v6.841c0,3.305,1.77,4.978,5.294,4.978c3.54,0,5.313-1.673,5.313-4.978
		v-6.841C123.662,30.892,121.888,29.218,118.349,29.218 M118.349,49.417c-6.589,0-9.193-3.773-9.193-8.524v-6.558
		c0-4.743,2.604-8.517,9.193-8.517c6.601,0,9.207,3.773,9.207,8.517v6.558C127.555,45.644,124.95,49.417,118.349,49.417z"/>
	<path d="M145.876,29.962c-2.093-0.417-4.646-0.695-6.23-0.695c-2.603,0-3.667,1.209-3.667,3.953v9.26
		c0,2.323,0.736,3.484,3.475,3.484c2.234,0,4.745-1.204,6.422-2.69V29.962 M132.065,33.219c0-4.516,2.05-7.401,7.35-7.401
		c1.993,0,4.644,0.331,6.461,0.705v-9.497l3.901-0.558v32.474h-3.303l-0.328-2.048c-1.855,1.493-4.5,2.522-7.476,2.522
		c-4.464,0-6.605-2.379-6.605-6.938V33.219z"/>
	<path d="M159.025,35.87h9.722v-1.863c0-3.167-1.072-4.93-4.747-4.93c-3.674,0-4.975,1.763-4.975,4.93V35.87 M164.421,46.059
		c2.234,0,4.691-0.415,7.157-1.072l0.514,3.125c-2.144,0.786-5.161,1.3-7.993,1.3c-6.705,0-8.979-3.21-8.979-8.333v-6.79
		c0-4.701,2.141-8.475,8.88-8.475c6.7,0,8.515,3.865,8.515,8.568v4.743h-13.489v1.91C159.025,44.614,160.004,46.059,164.421,46.059z
		"/>
	<path d="M191.391,48.942V31.639c0-1.494-0.753-2.094-2.196-2.094c-1.68,0-5.161,1.065-7.581,2.323v17.075h-3.904V17.026
		l3.904-0.559v11.727c2.508-1.214,6.088-2.379,8.745-2.379c3.626,0,4.932,2.284,4.932,5.777v17.352H191.391"/>
	<path d="M209.604,29.218c-3.535,0-5.308,1.674-5.308,4.976v6.841c0,3.305,1.772,4.978,5.308,4.978c3.527,0,5.291-1.673,5.291-4.978
		v-6.841C214.896,30.892,213.132,29.218,209.604,29.218 M209.604,49.417c-6.604,0-9.212-3.773-9.212-8.524v-6.558
		c0-4.743,2.607-8.517,9.212-8.517c6.595,0,9.199,3.773,9.199,8.517v6.558C218.804,45.644,216.199,49.417,209.604,49.417z"/>
	<path d="M227.822,26.282v17.312c0,1.491,0.742,2.092,2.186,2.092c1.665,0,5.152-1.026,7.578-2.278V26.282h3.906v22.661h-3.162
		l-0.379-1.959c-2.504,1.211-6.402,2.434-9.104,2.434c-3.632,0-4.927-2.29-4.927-5.775v-17.36H227.822"/>
	<path d="M254.265,49.417c-2.313,0-5.383-0.52-7.202-1.222l0.519-3.062c1.96,0.552,4.512,0.926,6.462,0.926
		c3.575,0,4.176-0.651,4.176-3.074c0-2.417-0.187-2.687-4.738-3.813c-5.63-1.395-6.141-2.561-6.141-7.257
		c0-4.189,1.865-6.098,7.818-6.098c2.175,0,4.553,0.285,6.4,0.794l-0.267,3.211c-1.904-0.376-4.426-0.652-6.279-0.652
		c-3.352,0-3.813,0.791-3.813,2.832c0,2.519,0.052,2.981,3.857,3.917c6.501,1.623,7.019,2.418,7.019,6.929
		C262.076,47.27,260.738,49.417,254.265,49.417"/>
	<path d="M270.214,35.87h9.714v-1.863c0-3.167-1.062-4.93-4.736-4.93c-3.671,0-4.978,1.763-4.978,4.93V35.87 M275.605,46.059
		c2.233,0,4.701-0.415,7.155-1.072l0.519,3.125c-2.141,0.786-5.16,1.3-8.002,1.3c-6.692,0-8.966-3.21-8.966-8.333v-6.79
		c0-4.701,2.139-8.475,8.88-8.475c6.694,0,8.506,3.865,8.506,8.568v4.743h-13.483v1.91C270.214,44.614,271.2,46.059,275.605,46.059z
		"/>
	<path d="M56.979,17.916c4.636,0,8.382-3.755,8.382-8.388c0-4.635-3.746-8.394-8.382-8.394c-4.631,0-8.385,3.759-8.385,8.394
		C48.594,14.161,52.348,17.916,56.979,17.916 M56.979,25.341c-8.729,0-15.796-7.078-15.796-15.813c0-4.635-3.753-8.394-8.388-8.394
		c-4.628,0-8.381,3.759-8.381,8.394c0,8.735-7.068,15.813-15.803,15.813c-4.621,0-8.379,3.757-8.379,8.394
		c0,4.631,3.752,8.386,8.375,8.386c0.004,0,0.004,0,0.004,0c0.006,0,0.006,0,0.006,0c8.729,0,15.797,7.081,15.797,15.819
		c0,4.635,3.753,8.391,8.381,8.391c4.635,0,8.388-3.756,8.388-8.391c0-4.637-3.753-8.392-8.388-8.392
		C24.07,49.549,17,42.47,17,33.735c0-8.741,7.07-15.819,15.796-15.819c8.73,0,15.799,7.078,15.799,15.819
		c0,4.631,3.75,8.386,8.382,8.386h0.007c4.633,0,8.378-3.755,8.378-8.386C65.361,29.098,61.616,25.341,56.979,25.341z"/>
</g>
</svg>
